<svg xmlns="http://www.w3.org/2000/svg" viewBox="0 0 400 400" width="400" height="400" fill="none" stroke="#1e2235" stroke-width="2" stroke-linecap="round" stroke-linejoin="round">
  <!-- Hair -->
  <path d="M140 110 Q130 60 200 50 Q270 60 260 110 Q265 140 250 160 L250 180 L150 180 L150 160 Q135 140 140 110 Z" fill="#1e2235" stroke="none"/>
  <!-- Face -->
  <ellipse cx="200" cy="150" rx="52" ry="60" fill="#ffffff"/>
  <!-- Eyes -->
  <circle cx="182" cy="150" r="2" fill="#1e2235" stroke="none"/>
  <circle cx="218" cy="150" r="2" fill="#1e2235" stroke="none"/>
  <!-- Smile -->
  <path d="M190 170 Q200 178 210 170"/>
  <!-- Cheeks -->
  <circle cx="175" cy="163" r="4" fill="#ffd0e4" stroke="none"/>
  <circle cx="225" cy="163" r="4" fill="#ffd0e4" stroke="none"/>
  <!-- Neck -->
  <path d="M188 205 L188 225 L212 225 L212 205"/>
  <!-- Body / shirt -->
  <path d="M120 230 Q120 220 140 218 L188 225 L212 225 L260 218 Q280 220 280 230 L290 390 L110 390 Z" fill="#ff4fa3" stroke="#ff4fa3"/>
  <!-- Arm left -->
  <path d="M120 230 Q95 280 100 340" fill="none" stroke="#1e2235"/>
  <path d="M100 340 Q98 355 108 360 Q118 362 120 350" fill="#ffffff" stroke="#1e2235"/>
  <!-- Arm right (holding laptop) -->
  <path d="M280 230 Q305 280 300 340" fill="none" stroke="#1e2235"/>
  <path d="M300 340 Q302 355 292 360 Q282 362 280 350" fill="#ffffff" stroke="#1e2235"/>
  <!-- Laptop -->
  <rect x="155" y="330" width="90" height="60" rx="4" fill="#ffffff" stroke="#1e2235" stroke-width="2"/>
  <rect x="165" y="340" width="70" height="40" fill="#f5f5f5" stroke="#1e2235" stroke-width="1"/>
  <line x1="150" y1="392" x2="250" y2="392" stroke="#1e2235" stroke-width="3"/>
</svg>
